<?xml version="1.0" encoding="UTF-8" standalone="no"?>
<!-- Created with Inkscape (http://www.inkscape.org/) -->

<svg
   width="159.2328mm"
   height="90.431885mm"
   viewBox="0 0 159.2328 90.431885"
   version="1.1"
   id="svg5"
   xml:space="preserve"
   inkscape:version="1.2.2 (b0a8486, 2022-12-01)"
   sodipodi:docname="block-us-32bits.svg"
   xmlns:inkscape="http://www.inkscape.org/namespaces/inkscape"
   xmlns:sodipodi="http://sodipodi.sourceforge.net/DTD/sodipodi-0.dtd"
   xmlns="http://www.w3.org/2000/svg"
   xmlns:svg="http://www.w3.org/2000/svg"><sodipodi:namedview
     id="namedview7"
     pagecolor="#ffffff"
     bordercolor="#666666"
     borderopacity="1.0"
     inkscape:showpageshadow="2"
     inkscape:pageopacity="0.0"
     inkscape:pagecheckerboard="0"
     inkscape:deskcolor="#d1d1d1"
     inkscape:document-units="mm"
     showgrid="false"
     inkscape:zoom="0.84096521"
     inkscape:cx="149.23328"
     inkscape:cy="244.36207"
     inkscape:window-width="1860"
     inkscape:window-height="1016"
     inkscape:window-x="60"
     inkscape:window-y="1107"
     inkscape:window-maximized="1"
     inkscape:current-layer="svg5"
     showguides="true"><sodipodi:guide
       position="10.606896,111.96676"
       orientation="1,0"
       id="guide1023"
       inkscape:locked="false" /><sodipodi:guide
       position="97.846396,107.10667"
       orientation="1,0"
       id="guide1025"
       inkscape:locked="false" /></sodipodi:namedview><defs
     id="defs2"><marker
       inkscape:stockid="TriangleOutM"
       orient="auto"
       refY="0"
       refX="0"
       id="TriangleOutM"
       style="overflow:visible"
       inkscape:isstock="true"><path
         id="path1880"
         d="M 5.77,0 -2.88,5 V -5 Z"
         style="fill:#ff0000;fill-opacity:1;fill-rule:evenodd;stroke:#ff0000;stroke-width:1pt;stroke-opacity:1"
         transform="scale(0.4)"
         inkscape:connector-curvature="0" /></marker><marker
       inkscape:stockid="Arrow2Mend"
       orient="auto"
       refY="0"
       refX="0"
       id="Arrow2Mend"
       style="overflow:visible"
       inkscape:isstock="true"><path
         id="path1762"
         style="fill:#ff0000;fill-opacity:1;fill-rule:evenodd;stroke:#ff0000;stroke-width:0.625;stroke-linejoin:round;stroke-opacity:1"
         d="M 8.7185878,4.0337352 -2.2072895,0.01601326 8.7185884,-4.0017078 c -1.7454984,2.3720609 -1.7354408,5.6174519 -6e-7,8.035443 z"
         transform="scale(-0.6)"
         inkscape:connector-curvature="0" /></marker><marker
       inkscape:stockid="Arrow1Mend"
       orient="auto"
       refY="0"
       refX="0"
       id="Arrow1Mend"
       style="overflow:visible"
       inkscape:isstock="true"><path
         id="path1744"
         d="M 0,0 5,-5 -12.5,0 5,5 Z"
         style="fill:#ff0000;fill-opacity:1;fill-rule:evenodd;stroke:#ff0000;stroke-width:1pt;stroke-opacity:1"
         transform="matrix(-0.4,0,0,-0.4,-4,0)"
         inkscape:connector-curvature="0" /></marker><marker
       inkscape:stockid="TriangleOutM"
       orient="auto"
       refY="0"
       refX="0"
       id="TriangleOutM-6"
       style="overflow:visible"
       inkscape:isstock="true"><path
         id="path1880-2"
         d="M 5.77,0 -2.88,5 V -5 Z"
         style="fill:#ff0000;fill-opacity:1;fill-rule:evenodd;stroke:#ff0000;stroke-width:1pt;stroke-opacity:1"
         transform="scale(0.4)"
         inkscape:connector-curvature="0" /></marker><marker
       inkscape:stockid="Arrow2Mend"
       orient="auto"
       refY="0"
       refX="0"
       id="Arrow2Mend-9"
       style="overflow:visible"
       inkscape:isstock="true"><path
         id="path1762-1"
         style="fill:#ff0000;fill-opacity:1;fill-rule:evenodd;stroke:#ff0000;stroke-width:0.625;stroke-linejoin:round;stroke-opacity:1"
         d="M 8.7185878,4.0337352 -2.2072895,0.01601326 8.7185884,-4.0017078 c -1.7454984,2.3720609 -1.7354408,5.6174519 -6e-7,8.035443 z"
         transform="scale(-0.6)"
         inkscape:connector-curvature="0" /></marker><marker
       inkscape:stockid="Arrow1Mend"
       orient="auto"
       refY="0"
       refX="0"
       id="Arrow1Mend-2"
       style="overflow:visible"
       inkscape:isstock="true"><path
         id="path1744-7"
         d="M 0,0 5,-5 -12.5,0 5,5 Z"
         style="fill:#ff0000;fill-opacity:1;fill-rule:evenodd;stroke:#ff0000;stroke-width:1pt;stroke-opacity:1"
         transform="matrix(-0.4,0,0,-0.4,-4,0)"
         inkscape:connector-curvature="0" /></marker><marker
       inkscape:stockid="TriangleOutM"
       orient="auto"
       refY="0"
       refX="0"
       id="TriangleOutM-60"
       style="overflow:visible"
       inkscape:isstock="true"><path
         id="path1880-6"
         d="M 5.77,0 -2.88,5 V -5 Z"
         style="fill:#ff0000;fill-opacity:1;fill-rule:evenodd;stroke:#ff0000;stroke-width:1pt;stroke-opacity:1"
         transform="scale(0.4)"
         inkscape:connector-curvature="0" /></marker><marker
       inkscape:stockid="Arrow2Mend"
       orient="auto"
       refY="0"
       refX="0"
       id="Arrow2Mend-2"
       style="overflow:visible"
       inkscape:isstock="true"><path
         id="path1762-6"
         style="fill:#ff0000;fill-opacity:1;fill-rule:evenodd;stroke:#ff0000;stroke-width:0.625;stroke-linejoin:round;stroke-opacity:1"
         d="M 8.7185878,4.0337352 -2.2072895,0.01601326 8.7185884,-4.0017078 c -1.7454984,2.3720609 -1.7354408,5.6174519 -6e-7,8.035443 z"
         transform="scale(-0.6)"
         inkscape:connector-curvature="0" /></marker><marker
       inkscape:stockid="Arrow1Mend"
       orient="auto"
       refY="0"
       refX="0"
       id="Arrow1Mend-1"
       style="overflow:visible"
       inkscape:isstock="true"><path
         id="path1744-8"
         d="M 0,0 5,-5 -12.5,0 5,5 Z"
         style="fill:#ff0000;fill-opacity:1;fill-rule:evenodd;stroke:#ff0000;stroke-width:1pt;stroke-opacity:1"
         transform="matrix(-0.4,0,0,-0.4,-4,0)"
         inkscape:connector-curvature="0" /></marker></defs><g
     inkscape:groupmode="layer"
     id="layer2"
     inkscape:label="back"
     style="opacity:1"
     transform="translate(-37.05947,-24.061723)" /><rect
     ry="5.4701953"
     y="19.279224"
     x="0.39687499"
     height="70.755783"
     width="106.55138"
     id="rect861"
     style="display:inline;fill:#e3e3e3;fill-opacity:1;stroke:#777777;stroke-width:0.79375;stroke-linejoin:round;stroke-miterlimit:4;stroke-dasharray:none;stroke-opacity:1" /><path
     inkscape:connector-curvature="0"
     id="path865-2-1-2"
     d="m 115.84375,54.781119 h -8.58019"
     style="display:inline;fill:none;stroke:#777777;stroke-width:4.7625;stroke-linecap:butt;stroke-linejoin:miter;stroke-miterlimit:4;stroke-dasharray:none;stroke-opacity:1" /><text
     xml:space="preserve"
     style="font-style:normal;font-weight:normal;font-size:13.214px;line-height:1.25;font-family:sans-serif;display:inline;fill:#767675;fill-opacity:1;stroke:none;stroke-width:0.297393"
     x="112.00953"
     y="44.365692"
     id="text844"><tspan
       sodipodi:role="line"
       id="tspan842"
       x="112.00953"
       y="44.365692"
       style="fill:#767675;fill-opacity:1;stroke-width:0.297393">n[31:0]</tspan></text><path
     inkscape:connector-curvature="0"
     id="path876"
     d="M 80.43063,19.522805 V 9.5333357"
     style="display:inline;fill:none;stroke:#777777;stroke-width:2.08673;stroke-linecap:butt;stroke-linejoin:miter;stroke-miterlimit:4;stroke-dasharray:none;stroke-opacity:1" /><path
     inkscape:connector-curvature="0"
     id="path3162"
     d="M 27.385235,19.363009 V 9.3735397"
     style="display:inline;fill:none;stroke:#777777;stroke-width:2.08673;stroke-linecap:butt;stroke-linejoin:miter;stroke-miterlimit:4;stroke-dasharray:none;stroke-opacity:1" /><text
     xml:space="preserve"
     style="font-style:normal;font-weight:normal;font-size:13.214px;line-height:1.25;font-family:sans-serif;display:inline;fill:#767675;fill-opacity:1;stroke:none;stroke-width:0.297393"
     x="-14.471522"
     y="20.591188"
     id="text3166"
     transform="rotate(-90)"><tspan
       sodipodi:role="line"
       id="tspan3164"
       x="-14.471522"
       y="20.591188"
       style="fill:#767675;fill-opacity:1;stroke-width:0.297393">F</tspan></text><text
     xml:space="preserve"
     style="font-style:normal;font-weight:normal;font-size:13.214px;line-height:1.25;font-family:sans-serif;display:inline;fill:#767675;fill-opacity:1;stroke:none;stroke-width:0.297393"
     x="-14.614116"
     y="73.784737"
     id="text3170"
     transform="rotate(-90)"><tspan
       sodipodi:role="line"
       id="tspan3168"
       x="-14.614116"
       y="73.784737"
       style="fill:#767675;fill-opacity:1;stroke-width:0.297393">us</tspan></text><g
     aria-label="µs"
     id="text416"
     style="font-weight:bold;font-size:35.501px;line-height:1.25;-inkscape-font-specification:'sans-serif Bold';text-align:center;text-anchor:middle;fill:#008000;stroke-width:0.83933"
     transform="matrix(2.0417334,0,0,2.0417334,-156.64987,-127.66141)"><path
       d="M 82.091034,103.93985 V 77.106094 h 6.257744 v 11.28474 q 0,2.0108 0.866724,2.99886 0.866723,0.97073 2.634839,0.97073 1.785451,0 2.652175,-0.97073 0.866723,-0.98806 0.866723,-2.99886 v -11.28474 h 6.240411 v 12.98352 q 0,1.23074 0.27735,1.71611 0.29469,0.48537 0.97073,0.48537 0.31202,0 0.58937,-0.0867 0.29469,-0.0867 0.62404,-0.29468 v 4.33361 q -0.91872,0.3987 -1.73344,0.58938 -0.79739,0.19068 -1.57744,0.19068 -1.542768,0 -2.530833,-0.64138 -0.97073,-0.65871 -1.577437,-2.09747 -0.81472,1.36942 -1.993464,2.0628 -1.16141,0.67605 -2.704178,0.67605 -1.282751,0 -2.184143,-0.41603 -0.901393,-0.39869 -1.421427,-1.23075 v 8.563226 z"
       id="path472" /><path
       d="m 123.34708,77.712794 v 4.71498 q -1.99347,-0.83205 -3.84825,-1.24808 -1.85479,-0.41603 -3.50157,-0.41603 -1.76811,0 -2.63484,0.4507 -0.84939,0.43336 -0.84939,1.35209 0,0.74538 0.64138,1.14407 0.65871,0.39869 2.34015,0.58937 l 1.09207,0.15601 q 4.76698,0.60671 6.41376,1.99347 1.64677,1.38676 1.64677,4.35095 0,3.10287 -2.28815,4.66297 -2.28815,1.56011 -6.82978,1.56011 -1.92412,0 -3.98693,-0.31202 -2.04546,-0.29469 -4.21227,-0.9014 v -4.71497 q 1.85478,0.90139 3.79625,1.35209 1.95879,0.45069 3.96959,0.45069 1.82012,0 2.73885,-0.5027 0.91872,-0.5027 0.91872,-1.49076 0,-0.83206 -0.64137,-1.23075 -0.62404,-0.41603 -2.5135,-0.64138 l -1.09207,-0.13867 q -4.14294,-0.52004 -5.80705,-1.92413 -1.66411,-1.40409 -1.66411,-4.26428 0,-3.08553 2.11481,-4.5763 2.1148,-1.49076 6.48309,-1.49076 1.71611,0 3.60557,0.26001 1.88946,0.26002 4.10827,0.81472 z"
       id="path474" /></g></svg>
