<?xml version="1.0" encoding="UTF-8" standalone="no"?>
<!-- Created with Inkscape (http://www.inkscape.org/) -->

<svg
   width="159.2328mm"
   height="90.431885mm"
   viewBox="0 0 159.2328 90.431885"
   version="1.1"
   id="svg5"
   xml:space="preserve"
   inkscape:version="1.2.2 (b0a8486, 2022-12-01)"
   sodipodi:docname="block-ms-32bits.svg"
   xmlns:inkscape="http://www.inkscape.org/namespaces/inkscape"
   xmlns:sodipodi="http://sodipodi.sourceforge.net/DTD/sodipodi-0.dtd"
   xmlns="http://www.w3.org/2000/svg"
   xmlns:svg="http://www.w3.org/2000/svg"><sodipodi:namedview
     id="namedview7"
     pagecolor="#ffffff"
     bordercolor="#666666"
     borderopacity="1.0"
     inkscape:showpageshadow="2"
     inkscape:pageopacity="0.0"
     inkscape:pagecheckerboard="0"
     inkscape:deskcolor="#d1d1d1"
     inkscape:document-units="mm"
     showgrid="false"
     inkscape:zoom="0.84096521"
     inkscape:cx="148.04417"
     inkscape:cy="244.36207"
     inkscape:window-width="1860"
     inkscape:window-height="1016"
     inkscape:window-x="60"
     inkscape:window-y="27"
     inkscape:window-maximized="1"
     inkscape:current-layer="svg5"
     showguides="true"><sodipodi:guide
       position="10.606896,111.96676"
       orientation="1,0"
       id="guide1023"
       inkscape:locked="false" /><sodipodi:guide
       position="97.846396,107.10667"
       orientation="1,0"
       id="guide1025"
       inkscape:locked="false" /></sodipodi:namedview><defs
     id="defs2"><marker
       inkscape:stockid="TriangleOutM"
       orient="auto"
       refY="0"
       refX="0"
       id="TriangleOutM"
       style="overflow:visible"
       inkscape:isstock="true"><path
         id="path1880"
         d="M 5.77,0 -2.88,5 V -5 Z"
         style="fill:#ff0000;fill-opacity:1;fill-rule:evenodd;stroke:#ff0000;stroke-width:1pt;stroke-opacity:1"
         transform="scale(0.4)"
         inkscape:connector-curvature="0" /></marker><marker
       inkscape:stockid="Arrow2Mend"
       orient="auto"
       refY="0"
       refX="0"
       id="Arrow2Mend"
       style="overflow:visible"
       inkscape:isstock="true"><path
         id="path1762"
         style="fill:#ff0000;fill-opacity:1;fill-rule:evenodd;stroke:#ff0000;stroke-width:0.625;stroke-linejoin:round;stroke-opacity:1"
         d="M 8.7185878,4.0337352 -2.2072895,0.01601326 8.7185884,-4.0017078 c -1.7454984,2.3720609 -1.7354408,5.6174519 -6e-7,8.035443 z"
         transform="scale(-0.6)"
         inkscape:connector-curvature="0" /></marker><marker
       inkscape:stockid="Arrow1Mend"
       orient="auto"
       refY="0"
       refX="0"
       id="Arrow1Mend"
       style="overflow:visible"
       inkscape:isstock="true"><path
         id="path1744"
         d="M 0,0 5,-5 -12.5,0 5,5 Z"
         style="fill:#ff0000;fill-opacity:1;fill-rule:evenodd;stroke:#ff0000;stroke-width:1pt;stroke-opacity:1"
         transform="matrix(-0.4,0,0,-0.4,-4,0)"
         inkscape:connector-curvature="0" /></marker><marker
       inkscape:stockid="TriangleOutM"
       orient="auto"
       refY="0"
       refX="0"
       id="TriangleOutM-6"
       style="overflow:visible"
       inkscape:isstock="true"><path
         id="path1880-2"
         d="M 5.77,0 -2.88,5 V -5 Z"
         style="fill:#ff0000;fill-opacity:1;fill-rule:evenodd;stroke:#ff0000;stroke-width:1pt;stroke-opacity:1"
         transform="scale(0.4)"
         inkscape:connector-curvature="0" /></marker><marker
       inkscape:stockid="Arrow2Mend"
       orient="auto"
       refY="0"
       refX="0"
       id="Arrow2Mend-9"
       style="overflow:visible"
       inkscape:isstock="true"><path
         id="path1762-1"
         style="fill:#ff0000;fill-opacity:1;fill-rule:evenodd;stroke:#ff0000;stroke-width:0.625;stroke-linejoin:round;stroke-opacity:1"
         d="M 8.7185878,4.0337352 -2.2072895,0.01601326 8.7185884,-4.0017078 c -1.7454984,2.3720609 -1.7354408,5.6174519 -6e-7,8.035443 z"
         transform="scale(-0.6)"
         inkscape:connector-curvature="0" /></marker><marker
       inkscape:stockid="Arrow1Mend"
       orient="auto"
       refY="0"
       refX="0"
       id="Arrow1Mend-2"
       style="overflow:visible"
       inkscape:isstock="true"><path
         id="path1744-7"
         d="M 0,0 5,-5 -12.5,0 5,5 Z"
         style="fill:#ff0000;fill-opacity:1;fill-rule:evenodd;stroke:#ff0000;stroke-width:1pt;stroke-opacity:1"
         transform="matrix(-0.4,0,0,-0.4,-4,0)"
         inkscape:connector-curvature="0" /></marker></defs><g
     inkscape:groupmode="layer"
     id="layer2"
     inkscape:label="back"
     style="opacity:1"
     transform="translate(-37.05947,-24.061723)" /><rect
     ry="5.4701953"
     y="19.279224"
     x="0.39687499"
     height="70.755783"
     width="106.55138"
     id="rect861"
     style="display:inline;fill:#e3e3e3;fill-opacity:1;stroke:#777777;stroke-width:0.79375;stroke-linejoin:round;stroke-miterlimit:4;stroke-dasharray:none;stroke-opacity:1" /><path
     inkscape:connector-curvature="0"
     id="path865-2-1-2"
     d="m 115.84375,54.781119 h -8.58019"
     style="display:inline;fill:none;stroke:#777777;stroke-width:4.7625;stroke-linecap:butt;stroke-linejoin:miter;stroke-miterlimit:4;stroke-dasharray:none;stroke-opacity:1" /><text
     xml:space="preserve"
     style="font-style:normal;font-weight:normal;font-size:13.214px;line-height:1.25;font-family:sans-serif;display:inline;fill:#767675;fill-opacity:1;stroke:none;stroke-width:0.297393"
     x="112.00953"
     y="44.365692"
     id="text844"><tspan
       sodipodi:role="line"
       id="tspan842"
       x="112.00953"
       y="44.365692"
       style="fill:#767675;fill-opacity:1;stroke-width:0.297393">n[31:0]</tspan></text><path
     inkscape:connector-curvature="0"
     id="path876"
     d="M 80.43063,19.522805 V 9.5333355"
     style="display:inline;fill:none;stroke:#777777;stroke-width:2.08673;stroke-linecap:butt;stroke-linejoin:miter;stroke-miterlimit:4;stroke-dasharray:none;stroke-opacity:1" /><path
     inkscape:connector-curvature="0"
     id="path3162"
     d="M 27.385235,19.363009 V 9.3735395"
     style="display:inline;fill:none;stroke:#777777;stroke-width:2.08673;stroke-linecap:butt;stroke-linejoin:miter;stroke-miterlimit:4;stroke-dasharray:none;stroke-opacity:1" /><text
     xml:space="preserve"
     style="font-style:normal;font-weight:normal;font-size:13.214px;line-height:1.25;font-family:sans-serif;display:inline;fill:#767675;fill-opacity:1;stroke:none;stroke-width:0.297393"
     x="-14.471522"
     y="20.591188"
     id="text3166"
     transform="rotate(-90)"><tspan
       sodipodi:role="line"
       id="tspan3164"
       x="-14.471522"
       y="20.591188"
       style="fill:#767675;fill-opacity:1;stroke-width:0.297393">F</tspan></text><text
     xml:space="preserve"
     style="font-style:normal;font-weight:normal;font-size:13.214px;line-height:1.25;font-family:sans-serif;display:inline;fill:#767675;fill-opacity:1;stroke:none;stroke-width:0.297393"
     x="-14.614116"
     y="73.784737"
     id="text3170"
     transform="rotate(-90)"><tspan
       sodipodi:role="line"
       id="tspan3168"
       x="-14.614116"
       y="73.784737"
       style="fill:#767675;fill-opacity:1;stroke-width:0.297393">ns</tspan></text><g
     aria-label="ms"
     id="text514"
     style="font-weight:bold;font-size:35.7432px;line-height:1.25;-inkscape-font-specification:'sans-serif Bold';text-align:center;text-anchor:middle;fill:#008000;stroke-width:0.472851"
     transform="matrix(1.6132503,0,0,1.6132503,-114.12922,-195.98963)"><path
       d="m 95.688317,148.82277 q 1.186786,-1.81508 2.80989,-2.75753 1.640553,-0.9599 3.595263,-0.9599 3.36838,0 5.1311,2.07688 1.76273,2.07687 1.76273,6.03864 v 11.90277 h -6.28298 v -10.1924 q 0.0175,-0.22689 0.0175,-0.47122 0.0174,-0.24434 0.0174,-0.69811 0,-2.07688 -0.61084,-3.00187 -0.61085,-0.94245 -1.97216,-0.94245 -1.780182,0 -2.757535,1.46603 -0.959901,1.46603 -0.994806,4.24101 v 9.59901 h -6.282984 v -10.1924 q 0,-3.24621 -0.558488,-4.1712 -0.558487,-0.94245 -1.989611,-0.94245 -1.797632,0 -2.774985,1.48348 -0.977353,1.46603 -0.977353,4.20611 v 9.61646 h -6.282984 v -19.54706 h 6.282984 v 2.86224 q 1.15188,-1.65801 2.635363,-2.49574 1.500935,-0.83773 3.298566,-0.83773 2.024518,0 3.577811,0.97735 1.553293,0.97736 2.356119,2.74008 z"
       id="path568" /><path
       d="m 130.08765,146.18741 v 4.74714 q -2.00706,-0.83773 -3.8745,-1.25659 -1.86745,-0.41887 -3.52545,-0.41887 -1.78018,0 -2.65282,0.45377 -0.85518,0.43632 -0.85518,1.36132 0,0.75046 0.64575,1.15188 0.6632,0.40141 2.35612,0.59339 l 1.09952,0.15707 q 4.7995,0.61085 6.45751,2.00707 1.65801,1.39622 1.65801,4.38063 0,3.12404 -2.30376,4.69479 -2.30376,1.57075 -6.87638,1.57075 -1.93725,0 -4.01413,-0.31415 -2.05942,-0.2967 -4.24101,-0.90755 v -4.74714 q 1.86744,0.90754 3.82215,1.36131 1.97216,0.45378 3.99667,0.45378 1.83254,0 2.75754,-0.50613 0.92499,-0.50613 0.92499,-1.50094 0,-0.83773 -0.64575,-1.23914 -0.6283,-0.41887 -2.53065,-0.64575 l -1.09952,-0.13963 q -4.1712,-0.52358 -5.84667,-1.93725 -1.67546,-1.41367 -1.67546,-4.29337 0,-3.10659 2.12924,-4.60752 2.12923,-1.50094 6.52732,-1.50094 1.72782,0 3.63017,0.26179 1.90234,0.26179 4.13629,0.82028 z"
       id="path570" /></g></svg>
