<?xml version="1.0" encoding="UTF-8" standalone="no"?>
<!-- Created with Inkscape (http://www.inkscape.org/) -->

<svg
   width="52.228676mm"
   height="25.507021mm"
   viewBox="0 0 52.228676 25.507021"
   version="1.1"
   id="svg5"
   xml:space="preserve"
   inkscape:version="1.2 (dc2aeda, 2022-05-15)"
   sodipodi:docname="convert-ns.svg"
   xmlns:inkscape="http://www.inkscape.org/namespaces/inkscape"
   xmlns:sodipodi="http://sodipodi.sourceforge.net/DTD/sodipodi-0.dtd"
   xmlns="http://www.w3.org/2000/svg"
   xmlns:svg="http://www.w3.org/2000/svg"><sodipodi:namedview
     id="namedview7"
     pagecolor="#ffffff"
     bordercolor="#666666"
     borderopacity="1.0"
     inkscape:showpageshadow="2"
     inkscape:pageopacity="0.0"
     inkscape:pagecheckerboard="0"
     inkscape:deskcolor="#d1d1d1"
     inkscape:document-units="mm"
     showgrid="false"
     inkscape:zoom="0.84096521"
     inkscape:cx="139.12585"
     inkscape:cy="-4.1618844"
     inkscape:window-width="1858"
     inkscape:window-height="1016"
     inkscape:window-x="62"
     inkscape:window-y="27"
     inkscape:window-maximized="1"
     inkscape:current-layer="layer1" /><defs
     id="defs2"><marker
       inkscape:stockid="TriangleOutM"
       orient="auto"
       refY="0"
       refX="0"
       id="TriangleOutM"
       style="overflow:visible"
       inkscape:isstock="true"><path
         id="path1880"
         d="M 5.77,0 -2.88,5 V -5 Z"
         style="fill:#ff0000;fill-opacity:1;fill-rule:evenodd;stroke:#ff0000;stroke-width:1pt;stroke-opacity:1"
         transform="scale(0.4)"
         inkscape:connector-curvature="0" /></marker><marker
       inkscape:stockid="Arrow2Mend"
       orient="auto"
       refY="0"
       refX="0"
       id="Arrow2Mend"
       style="overflow:visible"
       inkscape:isstock="true"><path
         id="path1762"
         style="fill:#ff0000;fill-opacity:1;fill-rule:evenodd;stroke:#ff0000;stroke-width:0.625;stroke-linejoin:round;stroke-opacity:1"
         d="M 8.7185878,4.0337352 -2.2072895,0.01601326 8.7185884,-4.0017078 c -1.7454984,2.3720609 -1.7354408,5.6174519 -6e-7,8.035443 z"
         transform="scale(-0.6)"
         inkscape:connector-curvature="0" /></marker><marker
       inkscape:stockid="Arrow1Mend"
       orient="auto"
       refY="0"
       refX="0"
       id="Arrow1Mend"
       style="overflow:visible"
       inkscape:isstock="true"><path
         id="path1744"
         d="M 0,0 5,-5 -12.5,0 5,5 Z"
         style="fill:#ff0000;fill-opacity:1;fill-rule:evenodd;stroke:#ff0000;stroke-width:1pt;stroke-opacity:1"
         transform="matrix(-0.4,0,0,-0.4,-4,0)"
         inkscape:connector-curvature="0" /></marker></defs><g
     inkscape:label="Capa 1"
     inkscape:groupmode="layer"
     id="layer1"
     transform="translate(-77.338766,-143.20201)"><g
       aria-label="ns"
       id="text1691"
       style="font-size:44.4204px;line-height:1.25;fill:#008000;stroke-width:0.264583"><path
         d="m 101.76131,153.28769 v 14.79234 h -7.808274 v -2.40755 -8.91444 q 0,-3.145 -0.151827,-4.33793 -0.130138,-1.19293 -0.477172,-1.75686 -0.455483,-0.75914 -1.23631,-1.17125 -0.780828,-0.43379 -1.778552,-0.43379 -2.42924,0 -3.817378,1.887 -1.388137,1.86531 -1.388137,5.18383 v 11.95099 h -7.764894 v -24.2924 h 7.764894 v 3.5571 q 1.756861,-2.12559 3.730619,-3.12331 1.973758,-1.01941 4.35962,-1.01941 4.207791,0 6.376756,2.58106 2.190655,2.58107 2.190655,7.50462 z"
         style="font-weight:bold;-inkscape-font-specification:'sans-serif Bold';fill:#008000"
         id="path1988" /><path
         d="m 127.94071,144.54676 v 5.89959 q -2.49431,-1.0411 -4.8151,-1.56166 -2.32079,-0.52055 -4.38131,-0.52055 -2.21234,0 -3.29682,0.56393 -1.0628,0.54224 -1.0628,1.6918 0,0.93265 0.80252,1.43151 0.82421,0.49886 2.9281,0.73745 l 1.36645,0.19521 q 5.96465,0.75914 8.02517,2.49431 2.06052,1.73517 2.06052,5.4441 0,3.88245 -2.86304,5.83451 -2.86303,1.95207 -8.54572,1.95207 -2.40755,0 -4.98862,-0.39041 -2.55937,-0.36873 -5.27058,-1.12786 v -5.89959 q 2.32079,1.12786 4.75003,1.6918 2.45093,0.56393 4.96693,0.56393 2.27742,0 3.42697,-0.629 1.14955,-0.629 1.14955,-1.86531 0,-1.04111 -0.80252,-1.53997 -0.78083,-0.52055 -3.145,-0.80252 l -1.36645,-0.17351 q -5.18382,-0.65069 -7.26603,-2.40755 -2.0822,-1.75687 -2.0822,-5.33566 0,-3.86075 2.64613,-5.72606 2.64614,-1.86531 8.11193,-1.86531 2.14728,0 4.51145,0.32534 2.36417,0.32535 5.14044,1.01941 z"
         style="font-weight:bold;-inkscape-font-specification:'sans-serif Bold';fill:#008000"
         id="path1990" /></g></g></svg>
