<?xml version="1.0" encoding="UTF-8" standalone="no"?>
<!-- Created with Inkscape (http://www.inkscape.org/) -->

<svg
   width="41.718437mm"
   height="17.03265mm"
   viewBox="0 0 41.718438 17.03265"
   version="1.1"
   id="svg5"
   xml:space="preserve"
   inkscape:version="1.2.2 (b0a8486, 2022-12-01)"
   sodipodi:docname="convert-sec.svg"
   xmlns:inkscape="http://www.inkscape.org/namespaces/inkscape"
   xmlns:sodipodi="http://sodipodi.sourceforge.net/DTD/sodipodi-0.dtd"
   xmlns="http://www.w3.org/2000/svg"
   xmlns:svg="http://www.w3.org/2000/svg"><sodipodi:namedview
     id="namedview7"
     pagecolor="#ffffff"
     bordercolor="#666666"
     borderopacity="1.0"
     inkscape:showpageshadow="2"
     inkscape:pageopacity="0.0"
     inkscape:pagecheckerboard="0"
     inkscape:deskcolor="#d1d1d1"
     inkscape:document-units="mm"
     showgrid="false"
     inkscape:zoom="1.6400733"
     inkscape:cx="29.571849"
     inkscape:cy="-28.352391"
     inkscape:window-width="1860"
     inkscape:window-height="1016"
     inkscape:window-x="60"
     inkscape:window-y="27"
     inkscape:window-maximized="1"
     inkscape:current-layer="text514" /><defs
     id="defs2"><marker
       inkscape:stockid="TriangleOutM"
       orient="auto"
       refY="0"
       refX="0"
       id="TriangleOutM"
       style="overflow:visible"
       inkscape:isstock="true"><path
         id="path1880"
         d="M 5.77,0 -2.88,5 V -5 Z"
         style="fill:#ff0000;fill-opacity:1;fill-rule:evenodd;stroke:#ff0000;stroke-width:1pt;stroke-opacity:1"
         transform="scale(0.4)"
         inkscape:connector-curvature="0" /></marker><marker
       inkscape:stockid="Arrow2Mend"
       orient="auto"
       refY="0"
       refX="0"
       id="Arrow2Mend"
       style="overflow:visible"
       inkscape:isstock="true"><path
         id="path1762"
         style="fill:#ff0000;fill-opacity:1;fill-rule:evenodd;stroke:#ff0000;stroke-width:0.625;stroke-linejoin:round;stroke-opacity:1"
         d="M 8.7185878,4.0337352 -2.2072895,0.01601326 8.7185884,-4.0017078 c -1.7454984,2.3720609 -1.7354408,5.6174519 -6e-7,8.035443 z"
         transform="scale(-0.6)"
         inkscape:connector-curvature="0" /></marker><marker
       inkscape:stockid="Arrow1Mend"
       orient="auto"
       refY="0"
       refX="0"
       id="Arrow1Mend"
       style="overflow:visible"
       inkscape:isstock="true"><path
         id="path1744"
         d="M 0,0 5,-5 -12.5,0 5,5 Z"
         style="fill:#ff0000;fill-opacity:1;fill-rule:evenodd;stroke:#ff0000;stroke-width:1pt;stroke-opacity:1"
         transform="matrix(-0.4,0,0,-0.4,-4,0)"
         inkscape:connector-curvature="0" /></marker></defs><g
     inkscape:label="Capa 1"
     inkscape:groupmode="layer"
     id="layer1"
     transform="translate(-82.914463,-147.55656)"><g
       aria-label="ns"
       id="text1691"
       style="font-size:44.4204px;line-height:1.25;fill:#008000;stroke-width:0.264583"><g
         aria-label="ms"
         id="text514"
         style="font-weight:bold;font-size:35.7432px;-inkscape-font-specification:'sans-serif Bold';text-align:center;text-anchor:middle;stroke-width:0.472851"><g
           aria-label="Sec"
           id="text734"
           style="font-size:22.5196px;stroke-width:0.532419"
           transform="translate(0.41412162,29.120259)"><path
             d="m 94.375911,119.25 v 3.47471 q -1.352495,-0.60478 -2.639015,-0.91266 -1.286521,-0.30789 -2.430094,-0.30789 -1.517434,0 -2.243163,0.41784 -0.72573,0.41785 -0.72573,1.29752 0,0.65975 0.48382,1.03361 0.494815,0.36287 1.781336,0.62677 l 1.803327,0.36287 q 2.737979,0.54979 3.892548,1.67137 1.154569,1.12158 1.154569,3.18881 0,2.71599 -1.616397,4.04649 -1.605401,1.31951 -4.915166,1.31951 -1.561418,0 -3.133831,-0.29689 -1.572414,-0.29689 -3.144827,-0.87967 v -3.57367 q 1.572413,0.83569 3.034868,1.26453 1.47345,0.41785 2.836941,0.41785 1.385484,0 2.122209,-0.46183 0.736725,-0.46183 0.736725,-1.31951 0,-0.76971 -0.505811,-1.18756 -0.494816,-0.41784 -1.990258,-0.74772 l -1.638389,-0.36286 q -2.463081,-0.52781 -3.606655,-1.68238 -1.132577,-1.15456 -1.132577,-3.11183 0,-2.45209 1.583409,-3.7716 1.58341,-1.31951 4.552302,-1.31951 1.352496,0 2.781963,0.20893 1.429466,0.19792 2.957896,0.60477 z"
             id="path736" /><path
             d="m 111.2876,128.95938 v 1.12158 h -9.20356 q 0.14294,1.38548 1.00062,2.07823 0.85768,0.69274 2.39711,0.69274 1.24254,0 2.54005,-0.36287 1.30851,-0.37386 2.683,-1.12158 v 3.03487 q -1.39648,0.5278 -2.79296,0.7917 -1.39648,0.2749 -2.79296,0.2749 -3.34275,0 -5.201056,-1.69337 -1.847311,-1.70436 -1.847311,-4.77222 0,-3.01287 1.814323,-4.73923 1.825324,-1.72636 5.014134,-1.72636 2.90291,0 4.64027,1.74835 1.74834,1.74835 1.74834,4.67326 z m -4.04649,-1.30851 q 0,-1.12158 -0.65975,-1.80333 -0.64876,-0.69274 -1.70437,-0.69274 -1.14357,0 -1.8583,0.64876 -0.71474,0.63776 -0.89067,1.84731 z"
             id="path738" /><path
             d="m 124.21878,123.21952 v 3.2108 q -0.8027,-0.54979 -1.6164,-0.81369 -0.8027,-0.26391 -1.67137,-0.26391 -1.64939,0 -2.57305,0.96764 -0.91265,0.95665 -0.91265,2.683 0,1.72636 0.91265,2.694 0.92366,0.95664 2.57305,0.95664 0.92365,0 1.74834,-0.2749 0.83569,-0.27489 1.53943,-0.81369 v 3.2218 q -0.92366,0.34087 -1.8803,0.50581 -0.94565,0.17593 -1.90229,0.17593 -3.33176,0 -5.21206,-1.70436 -1.88029,-1.71536 -1.88029,-4.76123 0,-3.04586 1.88029,-4.75023 1.8803,-1.71536 5.21206,-1.71536 0.96764,0 1.90229,0.17594 0.94565,0.16494 1.8803,0.50581 z"
             id="path740" /></g></g></g></g></svg>
