<?xml version="1.0" encoding="UTF-8" standalone="no"?>
<!-- Created with Inkscape (http://www.inkscape.org/) -->

<svg
   width="44.11393mm"
   height="15.5932mm"
   viewBox="0 0 44.11393 15.593201"
   version="1.1"
   id="svg5"
   xml:space="preserve"
   inkscape:version="1.2.2 (b0a8486, 2022-12-01)"
   sodipodi:docname="convert-Mhz.svg"
   xmlns:inkscape="http://www.inkscape.org/namespaces/inkscape"
   xmlns:sodipodi="http://sodipodi.sourceforge.net/DTD/sodipodi-0.dtd"
   xmlns="http://www.w3.org/2000/svg"
   xmlns:svg="http://www.w3.org/2000/svg"><sodipodi:namedview
     id="namedview7"
     pagecolor="#ffffff"
     bordercolor="#666666"
     borderopacity="1.0"
     inkscape:showpageshadow="2"
     inkscape:pageopacity="0.0"
     inkscape:pagecheckerboard="0"
     inkscape:deskcolor="#d1d1d1"
     inkscape:document-units="mm"
     showgrid="false"
     inkscape:zoom="2.7460694"
     inkscape:cx="110.88576"
     inkscape:cy="16.569137"
     inkscape:window-width="1860"
     inkscape:window-height="1016"
     inkscape:window-x="60"
     inkscape:window-y="27"
     inkscape:window-maximized="1"
     inkscape:current-layer="text1035" /><defs
     id="defs2"><marker
       inkscape:stockid="TriangleOutM"
       orient="auto"
       refY="0"
       refX="0"
       id="TriangleOutM"
       style="overflow:visible"
       inkscape:isstock="true"><path
         id="path1880"
         d="M 5.77,0 -2.88,5 V -5 Z"
         style="fill:#ff0000;fill-opacity:1;fill-rule:evenodd;stroke:#ff0000;stroke-width:1pt;stroke-opacity:1"
         transform="scale(0.4)"
         inkscape:connector-curvature="0" /></marker><marker
       inkscape:stockid="Arrow2Mend"
       orient="auto"
       refY="0"
       refX="0"
       id="Arrow2Mend"
       style="overflow:visible"
       inkscape:isstock="true"><path
         id="path1762"
         style="fill:#ff0000;fill-opacity:1;fill-rule:evenodd;stroke:#ff0000;stroke-width:0.625;stroke-linejoin:round;stroke-opacity:1"
         d="M 8.7185878,4.0337352 -2.2072895,0.01601326 8.7185884,-4.0017078 c -1.7454984,2.3720609 -1.7354408,5.6174519 -6e-7,8.035443 z"
         transform="scale(-0.6)"
         inkscape:connector-curvature="0" /></marker><marker
       inkscape:stockid="Arrow1Mend"
       orient="auto"
       refY="0"
       refX="0"
       id="Arrow1Mend"
       style="overflow:visible"
       inkscape:isstock="true"><path
         id="path1744"
         d="M 0,0 5,-5 -12.5,0 5,5 Z"
         style="fill:#ff0000;fill-opacity:1;fill-rule:evenodd;stroke:#ff0000;stroke-width:1pt;stroke-opacity:1"
         transform="matrix(-0.4,0,0,-0.4,-4,0)"
         inkscape:connector-curvature="0" /></marker></defs><g
     inkscape:label="Capa 1"
     inkscape:groupmode="layer"
     id="layer1"
     transform="translate(-79.185781,-100.82532)"><g
       aria-label="ns"
       id="text1691"
       style="font-size:44.4204px;line-height:1.25;fill:#008000;stroke-width:0.264583"><g
         aria-label="ms"
         id="text514"
         style="font-weight:bold;font-size:35.7432px;-inkscape-font-specification:'sans-serif Bold';text-align:center;text-anchor:middle;stroke-width:0.472851"><g
           aria-label="Hz"
           id="text811"
           style="font-size:24.3936px;stroke-width:0.576726"><g
             aria-label="Mhz"
             id="text1035"
             style="font-size:20.5237px;stroke-width:0.591827"><path
               d="m 79.185781,101.45666 h 4.910456 l 3.407255,8.00705 3.427297,-8.00705 h 4.900435 v 14.96186 h -3.647767 v -10.9433 l -3.447341,8.06717 H 86.29091 l -3.447341,-8.06717 v 10.9433 h -3.657788 z"
               id="path1037" /><path
               d="m 110.73295,109.58397 v 6.83455 h -3.60768 v -1.11237 -4.09873 q 0,-1.47313 -0.0701,-2.02431 -0.0601,-0.55117 -0.22047,-0.81173 -0.21045,-0.35074 -0.57121,-0.54115 -0.36077,-0.20043 -0.82175,-0.20043 -1.12239,0 -1.76376,0.87186 -0.64136,0.86184 -0.64136,2.3951 v 5.52176 h -3.587644 v -15.5932 h 3.587644 v 6.0128 q 0.81172,-0.98209 1.72367,-1.44307 0.91194,-0.47101 2.01428,-0.47101 1.94414,0 2.94628,1.19254 1.01215,1.19254 1.01215,3.46739 z"
               id="path1039" /><path
               d="m 113.50887,105.19462 h 9.79084 v 2.50533 l -5.91259,6.15311 h 5.91259 v 2.56546 h -10.04138 v -2.50534 l 5.91259,-6.1531 h -5.66205 z"
               id="path1041" /></g></g></g></g></g></svg>
