<?xml version="1.0" encoding="UTF-8" standalone="no"?>
<!-- Created with Inkscape (http://www.inkscape.org/) -->

<svg
   width="42.556126mm"
   height="27.30179mm"
   viewBox="0 0 42.556126 27.301791"
   version="1.1"
   id="svg5"
   xml:space="preserve"
   inkscape:version="1.2.2 (b0a8486, 2022-12-01)"
   sodipodi:docname="convert-us.svg"
   xmlns:inkscape="http://www.inkscape.org/namespaces/inkscape"
   xmlns:sodipodi="http://sodipodi.sourceforge.net/DTD/sodipodi-0.dtd"
   xmlns="http://www.w3.org/2000/svg"
   xmlns:svg="http://www.w3.org/2000/svg"><sodipodi:namedview
     id="namedview7"
     pagecolor="#ffffff"
     bordercolor="#666666"
     borderopacity="1.0"
     inkscape:showpageshadow="2"
     inkscape:pageopacity="0.0"
     inkscape:pagecheckerboard="0"
     inkscape:deskcolor="#d1d1d1"
     inkscape:document-units="mm"
     showgrid="false"
     inkscape:zoom="1.6400733"
     inkscape:cx="32.620493"
     inkscape:cy="-7.6216106"
     inkscape:window-width="1860"
     inkscape:window-height="1016"
     inkscape:window-x="60"
     inkscape:window-y="27"
     inkscape:window-maximized="1"
     inkscape:current-layer="text514" /><defs
     id="defs2"><marker
       inkscape:stockid="TriangleOutM"
       orient="auto"
       refY="0"
       refX="0"
       id="TriangleOutM"
       style="overflow:visible"
       inkscape:isstock="true"><path
         id="path1880"
         d="M 5.77,0 -2.88,5 V -5 Z"
         style="fill:#ff0000;fill-opacity:1;fill-rule:evenodd;stroke:#ff0000;stroke-width:1pt;stroke-opacity:1"
         transform="scale(0.4)"
         inkscape:connector-curvature="0" /></marker><marker
       inkscape:stockid="Arrow2Mend"
       orient="auto"
       refY="0"
       refX="0"
       id="Arrow2Mend"
       style="overflow:visible"
       inkscape:isstock="true"><path
         id="path1762"
         style="fill:#ff0000;fill-opacity:1;fill-rule:evenodd;stroke:#ff0000;stroke-width:0.625;stroke-linejoin:round;stroke-opacity:1"
         d="M 8.7185878,4.0337352 -2.2072895,0.01601326 8.7185884,-4.0017078 c -1.7454984,2.3720609 -1.7354408,5.6174519 -6e-7,8.035443 z"
         transform="scale(-0.6)"
         inkscape:connector-curvature="0" /></marker><marker
       inkscape:stockid="Arrow1Mend"
       orient="auto"
       refY="0"
       refX="0"
       id="Arrow1Mend"
       style="overflow:visible"
       inkscape:isstock="true"><path
         id="path1744"
         d="M 0,0 5,-5 -12.5,0 5,5 Z"
         style="fill:#ff0000;fill-opacity:1;fill-rule:evenodd;stroke:#ff0000;stroke-width:1pt;stroke-opacity:1"
         transform="matrix(-0.4,0,0,-0.4,-4,0)"
         inkscape:connector-curvature="0" /></marker></defs><g
     inkscape:label="Capa 1"
     inkscape:groupmode="layer"
     id="layer1"
     transform="translate(-82.046577,-142.00505)"><g
       aria-label="ns"
       id="text1691"
       style="font-size:44.4204px;line-height:1.25;fill:#008000;stroke-width:0.264583"><g
         aria-label="ms"
         id="text514"
         style="font-weight:bold;font-size:35.7432px;-inkscape-font-specification:'sans-serif Bold';text-align:center;text-anchor:middle;stroke-width:0.472851"><g
           aria-label="µs"
           id="text416"
           style="font-size:35.501px;stroke-width:0.83933"
           transform="translate(-0.04445668,29.277639)"><path
             d="m 82.091034,140.0292 v -26.83376 h 6.257744 v 11.28474 q 0,2.0108 0.866724,2.99886 0.866723,0.97073 2.634839,0.97073 1.785451,0 2.652175,-0.97073 0.866723,-0.98806 0.866723,-2.99886 v -11.28474 h 6.240411 v 12.98352 q 0,1.23074 0.27735,1.71611 0.29469,0.48537 0.97073,0.48537 0.31202,0 0.58937,-0.0867 0.29469,-0.0867 0.62404,-0.29468 v 4.33361 q -0.91872,0.3987 -1.73344,0.58938 -0.79739,0.19068 -1.57744,0.19068 -1.542768,0 -2.530833,-0.64138 -0.97073,-0.65871 -1.577437,-2.09747 -0.81472,1.36942 -1.993464,2.0628 -1.16141,0.67605 -2.704178,0.67605 -1.282751,0 -2.184143,-0.41603 -0.901393,-0.39869 -1.421427,-1.23075 v 8.56323 z"
             id="path472" /><path
             d="m 123.34708,113.80214 v 4.71498 q -1.99347,-0.83205 -3.84825,-1.24808 -1.85479,-0.41603 -3.50157,-0.41603 -1.76811,0 -2.63484,0.4507 -0.84939,0.43336 -0.84939,1.35209 0,0.74538 0.64138,1.14407 0.65871,0.39869 2.34015,0.58937 l 1.09207,0.15601 q 4.76698,0.60671 6.41376,1.99347 1.64677,1.38676 1.64677,4.35095 0,3.10287 -2.28815,4.66297 -2.28815,1.56011 -6.82978,1.56011 -1.92412,0 -3.98693,-0.31202 -2.04546,-0.29469 -4.21227,-0.9014 v -4.71497 q 1.85478,0.90139 3.79625,1.35209 1.95879,0.45069 3.96959,0.45069 1.82012,0 2.73885,-0.5027 0.91872,-0.5027 0.91872,-1.49076 0,-0.83206 -0.64137,-1.23075 -0.62404,-0.41603 -2.5135,-0.64138 l -1.09207,-0.13867 q -4.14294,-0.52004 -5.80705,-1.92413 -1.66411,-1.40409 -1.66411,-4.26428 0,-3.08553 2.11481,-4.5763 2.1148,-1.49076 6.48309,-1.49076 1.71611,0 3.60557,0.26001 1.88946,0.26002 4.10827,0.81472 z"
             id="path474" /></g></g></g></g></svg>
