<?xml version="1.0" encoding="UTF-8" standalone="no"?>
<!-- Created with Inkscape (http://www.inkscape.org/) -->

<svg
   width="38.536716mm"
   height="15.176698mm"
   viewBox="0 0 38.536717 15.176699"
   version="1.1"
   id="svg5"
   xml:space="preserve"
   inkscape:version="1.2.2 (b0a8486, 2022-12-01)"
   sodipodi:docname="convert-khz.svg"
   xmlns:inkscape="http://www.inkscape.org/namespaces/inkscape"
   xmlns:sodipodi="http://sodipodi.sourceforge.net/DTD/sodipodi-0.dtd"
   xmlns="http://www.w3.org/2000/svg"
   xmlns:svg="http://www.w3.org/2000/svg"><sodipodi:namedview
     id="namedview7"
     pagecolor="#ffffff"
     bordercolor="#666666"
     borderopacity="1.0"
     inkscape:showpageshadow="2"
     inkscape:pageopacity="0.0"
     inkscape:pagecheckerboard="0"
     inkscape:deskcolor="#d1d1d1"
     inkscape:document-units="mm"
     showgrid="false"
     inkscape:zoom="2.7460694"
     inkscape:cx="80.660743"
     inkscape:cy="14.748353"
     inkscape:window-width="1860"
     inkscape:window-height="1016"
     inkscape:window-x="60"
     inkscape:window-y="27"
     inkscape:window-maximized="1"
     inkscape:current-layer="text1035" /><defs
     id="defs2"><marker
       inkscape:stockid="TriangleOutM"
       orient="auto"
       refY="0"
       refX="0"
       id="TriangleOutM"
       style="overflow:visible"
       inkscape:isstock="true"><path
         id="path1880"
         d="M 5.77,0 -2.88,5 V -5 Z"
         style="fill:#ff0000;fill-opacity:1;fill-rule:evenodd;stroke:#ff0000;stroke-width:1pt;stroke-opacity:1"
         transform="scale(0.4)"
         inkscape:connector-curvature="0" /></marker><marker
       inkscape:stockid="Arrow2Mend"
       orient="auto"
       refY="0"
       refX="0"
       id="Arrow2Mend"
       style="overflow:visible"
       inkscape:isstock="true"><path
         id="path1762"
         style="fill:#ff0000;fill-opacity:1;fill-rule:evenodd;stroke:#ff0000;stroke-width:0.625;stroke-linejoin:round;stroke-opacity:1"
         d="M 8.7185878,4.0337352 -2.2072895,0.01601326 8.7185884,-4.0017078 c -1.7454984,2.3720609 -1.7354408,5.6174519 -6e-7,8.035443 z"
         transform="scale(-0.6)"
         inkscape:connector-curvature="0" /></marker><marker
       inkscape:stockid="Arrow1Mend"
       orient="auto"
       refY="0"
       refX="0"
       id="Arrow1Mend"
       style="overflow:visible"
       inkscape:isstock="true"><path
         id="path1744"
         d="M 0,0 5,-5 -12.5,0 5,5 Z"
         style="fill:#ff0000;fill-opacity:1;fill-rule:evenodd;stroke:#ff0000;stroke-width:1pt;stroke-opacity:1"
         transform="matrix(-0.4,0,0,-0.4,-4,0)"
         inkscape:connector-curvature="0" /></marker></defs><g
     inkscape:label="Capa 1"
     inkscape:groupmode="layer"
     id="layer1"
     transform="translate(-81.128914,-79.641516)"><g
       aria-label="ns"
       id="text1691"
       style="font-size:44.4204px;line-height:1.25;fill:#008000;stroke-width:0.264583"><g
         aria-label="ms"
         id="text514"
         style="font-weight:bold;font-size:35.7432px;-inkscape-font-specification:'sans-serif Bold';text-align:center;text-anchor:middle;stroke-width:0.472851"><g
           aria-label="Hz"
           id="text811"
           style="font-size:24.3936px;stroke-width:0.576726"><g
             aria-label="Mhz"
             id="text1035"
             style="font-size:20.5237px;stroke-width:0.591827"><g
               aria-label="Khz"
               id="text1232"
               style="font-size:19.9755px;stroke-width:0.591104"><path
                 d="m 81.128914,80.255997 h 3.75516 v 5.315746 l 5.413282,-5.315746 h 4.359887 l -7.012883,6.895839 7.734654,7.666378 h -4.701265 l -5.793675,-5.735153 v 5.735153 h -3.75516 z"
                 id="path1234" /><path
                 d="m 107.43454,88.166217 v 6.651997 h -3.51132 V 93.735558 89.74631 q 0,-1.433788 -0.0683,-1.97024 -0.0585,-0.536451 -0.21458,-0.790046 -0.20483,-0.341378 -0.55596,-0.526698 -0.35113,-0.195073 -0.7998,-0.195073 -1.09241,0 -1.71665,0.848568 -0.624231,0.838815 -0.624231,2.331126 v 5.374267 H 96.451917 V 79.641516 h 3.491812 v 5.852197 q 0.790051,-0.955859 1.677631,-1.404527 0.88758,-0.458422 1.96048,-0.458422 1.89221,0 2.86758,1.160686 0.98512,1.160686 0.98512,3.374767 z"
                 id="path1236" /><path
                 d="m 110.13631,83.894113 h 9.52932 v 2.438415 l -5.75466,5.988749 h 5.75466 v 2.496937 h -9.77317 v -2.438415 l 5.75466,-5.988749 h -5.51081 z"
                 id="path1238" /></g></g></g></g></g></g></svg>
