<?xml version="1.0" encoding="UTF-8" standalone="no"?>
<!-- Created with Inkscape (http://www.inkscape.org/) -->

<svg
   width="53.859135mm"
   height="20.52442mm"
   viewBox="0 0 53.859135 20.52442"
   version="1.1"
   id="svg5"
   xml:space="preserve"
   inkscape:version="1.2.2 (b0a8486, 2022-12-01)"
   sodipodi:docname="convert-ms.svg"
   xmlns:inkscape="http://www.inkscape.org/namespaces/inkscape"
   xmlns:sodipodi="http://sodipodi.sourceforge.net/DTD/sodipodi-0.dtd"
   xmlns="http://www.w3.org/2000/svg"
   xmlns:svg="http://www.w3.org/2000/svg"><sodipodi:namedview
     id="namedview7"
     pagecolor="#ffffff"
     bordercolor="#666666"
     borderopacity="1.0"
     inkscape:showpageshadow="2"
     inkscape:pageopacity="0.0"
     inkscape:pagecheckerboard="0"
     inkscape:deskcolor="#d1d1d1"
     inkscape:document-units="mm"
     showgrid="false"
     inkscape:zoom="1.6400733"
     inkscape:cx="49.083173"
     inkscape:cy="-19.206459"
     inkscape:window-width="1860"
     inkscape:window-height="1016"
     inkscape:window-x="60"
     inkscape:window-y="27"
     inkscape:window-maximized="1"
     inkscape:current-layer="text514" /><defs
     id="defs2"><marker
       inkscape:stockid="TriangleOutM"
       orient="auto"
       refY="0"
       refX="0"
       id="TriangleOutM"
       style="overflow:visible"
       inkscape:isstock="true"><path
         id="path1880"
         d="M 5.77,0 -2.88,5 V -5 Z"
         style="fill:#ff0000;fill-opacity:1;fill-rule:evenodd;stroke:#ff0000;stroke-width:1pt;stroke-opacity:1"
         transform="scale(0.4)"
         inkscape:connector-curvature="0" /></marker><marker
       inkscape:stockid="Arrow2Mend"
       orient="auto"
       refY="0"
       refX="0"
       id="Arrow2Mend"
       style="overflow:visible"
       inkscape:isstock="true"><path
         id="path1762"
         style="fill:#ff0000;fill-opacity:1;fill-rule:evenodd;stroke:#ff0000;stroke-width:0.625;stroke-linejoin:round;stroke-opacity:1"
         d="M 8.7185878,4.0337352 -2.2072895,0.01601326 8.7185884,-4.0017078 c -1.7454984,2.3720609 -1.7354408,5.6174519 -6e-7,8.035443 z"
         transform="scale(-0.6)"
         inkscape:connector-curvature="0" /></marker><marker
       inkscape:stockid="Arrow1Mend"
       orient="auto"
       refY="0"
       refX="0"
       id="Arrow1Mend"
       style="overflow:visible"
       inkscape:isstock="true"><path
         id="path1744"
         d="M 0,0 5,-5 -12.5,0 5,5 Z"
         style="fill:#ff0000;fill-opacity:1;fill-rule:evenodd;stroke:#ff0000;stroke-width:1pt;stroke-opacity:1"
         transform="matrix(-0.4,0,0,-0.4,-4,0)"
         inkscape:connector-curvature="0" /></marker></defs><g
     inkscape:label="Capa 1"
     inkscape:groupmode="layer"
     id="layer1"
     transform="translate(-77.537474,-145.10534)"><g
       aria-label="ns"
       id="text1691"
       style="font-size:44.4204px;line-height:1.25;fill:#008000;stroke-width:0.264583"><g
         aria-label="ms"
         id="text514"
         style="font-weight:bold;font-size:35.7432px;-inkscape-font-specification:'sans-serif Bold';text-align:center;text-anchor:middle;stroke-width:0.472851"><path
           d="m 95.688317,148.82277 q 1.186786,-1.81508 2.80989,-2.75753 1.640553,-0.9599 3.595263,-0.9599 3.36838,0 5.1311,2.07688 1.76273,2.07687 1.76273,6.03864 v 11.90277 h -6.28298 v -10.1924 q 0.0175,-0.22689 0.0175,-0.47122 0.0174,-0.24434 0.0174,-0.69811 0,-2.07688 -0.61084,-3.00187 -0.61085,-0.94245 -1.97216,-0.94245 -1.780182,0 -2.757535,1.46603 -0.959901,1.46603 -0.994806,4.24101 v 9.59901 h -6.282984 v -10.1924 q 0,-3.24621 -0.558488,-4.1712 -0.558487,-0.94245 -1.989611,-0.94245 -1.797632,0 -2.774985,1.48348 -0.977353,1.46603 -0.977353,4.20611 v 9.61646 h -6.282984 v -19.54706 h 6.282984 v 2.86224 q 1.15188,-1.65801 2.635363,-2.49574 1.500935,-0.83773 3.298566,-0.83773 2.024518,0 3.577811,0.97735 1.553293,0.97736 2.356119,2.74008 z"
           id="path568" /><path
           d="m 130.08765,146.18741 v 4.74714 q -2.00706,-0.83773 -3.8745,-1.25659 -1.86745,-0.41887 -3.52545,-0.41887 -1.78018,0 -2.65282,0.45377 -0.85518,0.43632 -0.85518,1.36132 0,0.75046 0.64575,1.15188 0.6632,0.40141 2.35612,0.59339 l 1.09952,0.15707 q 4.7995,0.61085 6.45751,2.00707 1.65801,1.39622 1.65801,4.38063 0,3.12404 -2.30376,4.69479 -2.30376,1.57075 -6.87638,1.57075 -1.93725,0 -4.01413,-0.31415 -2.05942,-0.2967 -4.24101,-0.90755 v -4.74714 q 1.86744,0.90754 3.82215,1.36131 1.97216,0.45378 3.99667,0.45378 1.83254,0 2.75754,-0.50613 0.92499,-0.50613 0.92499,-1.50094 0,-0.83773 -0.64575,-1.23914 -0.6283,-0.41887 -2.53065,-0.64575 l -1.09952,-0.13963 q -4.1712,-0.52358 -5.84667,-1.93725 -1.67546,-1.41367 -1.67546,-4.29337 0,-3.10659 2.12924,-4.60752 2.12923,-1.50094 6.52732,-1.50094 1.72782,0 3.63017,0.26179 1.90234,0.26179 4.13629,0.82028 z"
           id="path570" /></g></g></g></svg>
