<?xml version="1.0" encoding="UTF-8" standalone="no"?>
<svg
   width="79.818512mm"
   height="78.321335mm"
   viewBox="0 0 79.818513 78.321335"
   version="1.1"
   id="svg8"
   inkscape:version="1.2 (dc2aeda, 2022-05-15)"
   sodipodi:docname="Sys-delay-x32.svg"
   xmlns:inkscape="http://www.inkscape.org/namespaces/inkscape"
   xmlns:sodipodi="http://sodipodi.sourceforge.net/DTD/sodipodi-0.dtd"
   xmlns="http://www.w3.org/2000/svg"
   xmlns:svg="http://www.w3.org/2000/svg"
   xmlns:rdf="http://www.w3.org/1999/02/22-rdf-syntax-ns#"
   xmlns:cc="http://creativecommons.org/ns#"
   xmlns:dc="http://purl.org/dc/elements/1.1/">
  <defs
     id="defs2">
    <marker
       style="overflow:visible"
       id="TriangleStart"
       refX="0"
       refY="0"
       orient="auto-start-reverse"
       inkscape:stockid="TriangleStart"
       markerWidth="4"
       markerHeight="4.8000002"
       viewBox="0 0 5.3244081 6.1553851"
       inkscape:isstock="true"
       inkscape:collect="always"
       preserveAspectRatio="xMidYMid">
      <path
         transform="scale(0.5)"
         style="fill:context-stroke;fill-rule:evenodd;stroke:context-stroke;stroke-width:1pt"
         d="M 5.77,0 -2.88,5 V -5 Z"
         id="path135" />
    </marker>
    <marker
       inkscape:stockid="TriangleOutM"
       orient="auto"
       refY="0"
       refX="0"
       id="TriangleOutM"
       style="overflow:visible"
       inkscape:isstock="true">
      <path
         id="path1880"
         d="M 5.77,0 -2.88,5 V -5 Z"
         style="fill:#ff0000;fill-opacity:1;fill-rule:evenodd;stroke:#ff0000;stroke-width:1pt;stroke-opacity:1"
         transform="scale(0.4)"
         inkscape:connector-curvature="0" />
    </marker>
    <marker
       inkscape:stockid="Arrow2Mend"
       orient="auto"
       refY="0"
       refX="0"
       id="Arrow2Mend"
       style="overflow:visible"
       inkscape:isstock="true">
      <path
         id="path1762"
         style="fill:#ff0000;fill-opacity:1;fill-rule:evenodd;stroke:#ff0000;stroke-width:0.625;stroke-linejoin:round;stroke-opacity:1"
         d="M 8.7185878,4.0337352 -2.2072895,0.01601326 8.7185884,-4.0017078 c -1.7454984,2.3720609 -1.7354408,5.6174519 -6e-7,8.035443 z"
         transform="scale(-0.6)"
         inkscape:connector-curvature="0" />
    </marker>
    <marker
       inkscape:stockid="Arrow1Mend"
       orient="auto"
       refY="0"
       refX="0"
       id="Arrow1Mend"
       style="overflow:visible"
       inkscape:isstock="true">
      <path
         id="path1744"
         d="M 0,0 5,-5 -12.5,0 5,5 Z"
         style="fill:#ff0000;fill-opacity:1;fill-rule:evenodd;stroke:#ff0000;stroke-width:1pt;stroke-opacity:1"
         transform="matrix(-0.4,0,0,-0.4,-4,0)"
         inkscape:connector-curvature="0" />
    </marker>
    <marker
       inkscape:stockid="TriangleOutM"
       orient="auto"
       refY="0"
       refX="0"
       id="TriangleOutM-7"
       style="overflow:visible"
       inkscape:isstock="true">
      <path
         id="path1880-5"
         d="M 5.77,0 -2.88,5 V -5 Z"
         style="fill:#ff0000;fill-opacity:1;fill-rule:evenodd;stroke:#ff0000;stroke-width:1pt;stroke-opacity:1"
         transform="scale(0.4)"
         inkscape:connector-curvature="0" />
    </marker>
    <marker
       inkscape:stockid="Arrow2Mend"
       orient="auto"
       refY="0"
       refX="0"
       id="Arrow2Mend-3"
       style="overflow:visible"
       inkscape:isstock="true">
      <path
         id="path1762-5"
         style="fill:#ff0000;fill-opacity:1;fill-rule:evenodd;stroke:#ff0000;stroke-width:0.625;stroke-linejoin:round;stroke-opacity:1"
         d="M 8.7185878,4.0337352 -2.2072895,0.01601326 8.7185884,-4.0017078 c -1.7454984,2.3720609 -1.7354408,5.6174519 -6e-7,8.035443 z"
         transform="scale(-0.6)"
         inkscape:connector-curvature="0" />
    </marker>
    <marker
       inkscape:stockid="Arrow1Mend"
       orient="auto"
       refY="0"
       refX="0"
       id="Arrow1Mend-6"
       style="overflow:visible"
       inkscape:isstock="true">
      <path
         id="path1744-2"
         d="M 0,0 5,-5 -12.5,0 5,5 Z"
         style="fill:#ff0000;fill-opacity:1;fill-rule:evenodd;stroke:#ff0000;stroke-width:1pt;stroke-opacity:1"
         transform="matrix(-0.4,0,0,-0.4,-4,0)"
         inkscape:connector-curvature="0" />
    </marker>
    <linearGradient
       id="b"
       x1="83.199997"
       x2="46.534"
       y1="111.65"
       y2="20.316"
       gradientUnits="userSpaceOnUse"
       gradientTransform="matrix(0.26458333,0,0,0.26458333,164.28505,-22.014501)">
      <stop
         stop-color="#BBDEFB"
         offset=".0021923"
         id="stop12268" />
      <stop
         stop-color="#E3F2FD"
         offset="1"
         id="stop12270" />
    </linearGradient>
    <linearGradient
       id="a"
       x1="64.394997"
       x2="64.394997"
       y1="38.333"
       y2="114.21"
       gradientUnits="userSpaceOnUse"
       gradientTransform="matrix(0.26458333,0,0,0.26458333,164.28505,-22.014501)">
      <stop
         stop-color="#FFCA7B"
         offset="0"
         id="stop12275" />
      <stop
         stop-color="#FFA726"
         offset=".2539"
         id="stop12277" />
      <stop
         stop-color="#FFCC80"
         offset=".4688"
         id="stop12279" />
      <stop
         stop-color="#FFC875"
         offset=".6586"
         id="stop12281" />
      <stop
         stop-color="#FFA726"
         offset=".8665"
         id="stop12283" />
    </linearGradient>
  </defs>
  <sodipodi:namedview
     id="base"
     pagecolor="#ffffff"
     bordercolor="#666666"
     borderopacity="1.0"
     inkscape:pageopacity="0.0"
     inkscape:pageshadow="2"
     inkscape:zoom="1.4"
     inkscape:cx="117.14286"
     inkscape:cy="175.35714"
     inkscape:document-units="mm"
     inkscape:current-layer="layer1"
     inkscape:document-rotation="0"
     showgrid="false"
     fit-margin-top="0"
     fit-margin-left="0"
     fit-margin-right="0"
     fit-margin-bottom="0"
     inkscape:window-width="1858"
     inkscape:window-height="1016"
     inkscape:window-x="62"
     inkscape:window-y="27"
     inkscape:window-maximized="1"
     showguides="true"
     inkscape:guide-bbox="true"
     inkscape:snap-global="false"
     inkscape:snap-object-midpoints="false"
     inkscape:showpageshadow="2"
     inkscape:pagecheckerboard="0"
     inkscape:deskcolor="#d1d1d1" />
  <metadata
     id="metadata5">
    <rdf:RDF>
      <cc:Work
         rdf:about="">
        <dc:format>image/svg+xml</dc:format>
        <dc:type
           rdf:resource="http://purl.org/dc/dcmitype/StillImage" />
      </cc:Work>
    </rdf:RDF>
  </metadata>
  <g
     inkscape:label="Layer 1"
     inkscape:groupmode="layer"
     id="layer1"
     transform="translate(-142.55811,37.238187)">
    <g
       id="g992-7-9"
       transform="matrix(0.69221913,0,0,0.69221913,142.26294,-20.347615)"
       style="stroke-width:1.21638">
      <circle
         r="14.559162"
         cy="73.815468"
         cx="100.60208"
         id="path992-2-6-3"
         style="opacity:1;fill:#ececec;fill-opacity:1;stroke:#008000;stroke-width:0.740096;stroke-linecap:round;stroke-linejoin:round;stroke-miterlimit:4;stroke-dasharray:none;stroke-opacity:1" />
      <path
         sodipodi:nodetypes="cccc"
         inkscape:connector-curvature="0"
         id="path1773-2-3-1-8-9-5-6"
         d="m 106.97785,82.141683 h -3.35236 V 63.316223 H 97.540294 V 81.99432 h -3.65214"
         style="fill:none;stroke:#008000;stroke-width:1.85024;stroke-linecap:round;stroke-linejoin:miter;stroke-miterlimit:4;stroke-dasharray:none;stroke-opacity:1" />
    </g>
    <text
       xml:space="preserve"
       style="font-style:normal;font-weight:normal;font-size:14.2865px;line-height:1.25;font-family:sans-serif;fill:#0000ff;fill-opacity:1;stroke:none;stroke-width:0.264583"
       x="169.08974"
       y="39.702824"
       id="text940"><tspan
         sodipodi:role="line"
         id="tspan938"
         x="169.08974"
         y="39.702824"
         style="fill:#0000ff;stroke-width:0.264583">x32</tspan></text>
    <g
       id="g4942"
       transform="matrix(0.69221913,0,0,0.69221913,83.253712,-20.347615)"
       style="stroke-width:1.21638">
      <circle
         r="14.559162"
         cy="73.815468"
         cx="100.60208"
         id="circle4938"
         style="opacity:1;fill:#ececec;fill-opacity:1;stroke:#008000;stroke-width:0.740096;stroke-linecap:round;stroke-linejoin:round;stroke-miterlimit:4;stroke-dasharray:none;stroke-opacity:1" />
      <path
         sodipodi:nodetypes="cccc"
         inkscape:connector-curvature="0"
         id="path4940"
         d="m 106.97785,82.141683 h -3.35236 V 63.316223 H 97.540294 V 81.99432 h -3.65214"
         style="fill:none;stroke:#008000;stroke-width:1.85024;stroke-linecap:round;stroke-linejoin:miter;stroke-miterlimit:4;stroke-dasharray:none;stroke-opacity:1" />
    </g>
    <g
       id="g18559"
       transform="matrix(1.3992628,0,0,1.3992628,-73.678144,2.9573641)"
       style="stroke-width:0.903681">
      <path
         d="m 179.18374,-6.2506262 c 0.41539,0.1772708 0.42598,0.8493125 0.0132,1.0398125 -1.35996,0.6323541 -7.95602,3.2781874 -7.95602,12.9090207 l -0.0423,1.7779999 20.04219,0.034396 -0.0132,-1.793875 c 0,-9.8160416 -6.63575,-12.252854 -8.00365,-12.8904998 -0.4101,-0.1905 -0.40216,-0.8625417 0.0132,-1.0398125 1.35732,-0.5820834 7.83961,-3.3469792 7.83961,-12.0094376 l 0.16669,-1.508125 -20.04484,-0.03175 0.17463,1.579563 c 0,8.3925829 6.44789,11.3479787 7.8105,11.9327079 z"
         fill="url(#b)"
         id="path12273"
         style="fill:url(#b);stroke-width:0.239099" />
      <path
         d="m 189.64536,6.904457 c -0.48948,-2.2939375 -1.30175,-3.7835416 -3.38931,-3.7835416 h -4.29948 l -0.003,-9.0884374 c 0,-2.3627292 6.06161,-3.048 6.06161,-6.368521 l -13.48052,0.0079 c 0,3.201458 6.01927,4.042833 6.01927,6.3843955 l 0.008,9.0646249 h -4.20159 c -2.10343,0 -2.92364,1.5134166 -3.39725,3.8311666 l -0.57943,2.7675416 17.87525,0.047625 z"
         fill="url(#a)"
         id="path12286"
         style="fill:url(#a);stroke-width:0.239099" />
      <path
         d="m 172.08497,-18.966501 18.26948,0.0291 -0.0714,0.627063 c -0.003,0.0291 -0.005,0.05821 -0.005,0.08731 0,5.310188 -2.54,9.2101458 -7.35807,11.2791875 -0.47625,0.2037291 -0.78845,0.6879166 -0.79639,1.2329583 -0.008,0.5450417 0.29104,1.0398125 0.762,1.2567708 0.0714,0.034396 0.1561,0.071438 0.254,0.1137708 1.80446,0.8016875 7.29191,3.2437917 7.29191,12.0623541 l 0.008,0.9921874 -18.42823,-0.03175 0.0238,-0.9657291 V 7.698207 c 0,-3.7412083 1.03187,-6.79714579 3.07181,-9.0831458 1.62719,-1.8309166 3.46604,-2.6696458 4.25185,-3.0268333 0.0635,-0.029104 0.12171,-0.055562 0.17463,-0.079375 0.47096,-0.2196041 0.76993,-0.7117291 0.762,-1.2567708 -0.008,-0.5450416 -0.32015,-1.0265833 -0.7964,-1.2329583 -2.20398,-0.9472083 -7.3316,-3.9343538 -7.3316,-11.2024578 0,-0.02911 -0.003,-0.05821 -0.005,-0.08731 l -0.0767,-0.695854 m -0.88636,-0.796396 0.17463,1.579563 c 0,8.3925828 6.44789,11.3479786 7.8105,11.9327078 0.41539,0.1772708 0.42598,0.8493125 0.0132,1.0398125 -1.35996,0.6323541 -7.95602,3.2781874 -7.95602,12.9090207 l -0.0423,1.7779999 20.03954,0.034396 -0.0132,-1.793875 c 0,-9.8160416 -6.63575,-12.252854 -8.00364,-12.8904998 -0.41011,-0.1905 -0.40217,-0.8625417 0.0132,-1.0398125 1.35731,-0.5820834 7.8396,-3.3469792 7.8396,-12.0094376 l 0.16669,-1.508125 z"
         fill="#424242"
         id="path12288"
         style="opacity:1;fill:#000000;stroke:#000000;stroke-width:0.239099" />
      <path
         d="m 170.90492,-20.956168 h 20.62692 c 0.88106,0 1.59279,0.714375 1.59279,1.592792 0,0.881062 -0.71437,1.592792 -1.59279,1.592792 h -20.62692 c -0.88106,0 -1.59279,-0.714375 -1.59279,-1.592792 0,-0.878417 0.71438,-1.592792 1.59279,-1.592792 z"
         fill="#795548"
         id="path12292"
         style="stroke-width:0.239099" />
      <g
         opacity="0.2"
         id="g12296"
         transform="matrix(0.26458333,0,0,0.26458333,164.28505,-22.014501)"
         style="stroke-width:0.816639">
        <path
           d="m 102.98,7 c 1.67,0 3.02,1.36 3.02,3.02 0,1.67 -1.36,3.02 -3.02,3.02 H 25.02 C 23.35,13.04 22,11.68 22,10.02 22,8.36 23.36,7 25.02,7 h 77.96 m 0,-3 H 25.02 C 21.7,4 19,6.7 19,10.02 c 0,3.33 2.7,6.02 6.02,6.02 h 77.96 c 3.33,0 6.02,-2.7 6.02,-6.02 C 109,6.7 106.3,4 102.98,4 Z"
           fill="#424242"
           id="path12294"
           style="stroke-width:0.737981" />
      </g>
      <g
         opacity="0.2"
         id="g12300"
         transform="matrix(0.26458333,0,0,0.26458333,164.28505,-22.014501)"
         style="opacity:1;stroke-width:0.903681">
        <path
           d="m 87.43,38.61 c -1.23,4.51 -6.51,7.56 -11.65,10.51 -5.66,3.26 -11,6.34 -11,11.58 l 0.01,34.35 c 0,1.1 0.9,1.95 2,1.95 h 16.25 c 5.94,0 8.88,3.48 10.85,12.73 l 1.81,8.39 -62.62,-0.16 1.69,-8.08 C 36.65,100.64 39.7,97 45.64,97 h 15.88 c 0.53,0 1.04,-0.16 1.41,-0.54 0.38,-0.38 0.59,-0.86 0.59,-1.39 L 63.49,60.78 C 63.49,55.57 58.14,52.38 52.47,49 47.45,46 42.28,42.92 41.03,38.62 l 46.4,-0.01 m 2.26,-2.01 -50.95,0.02 c 0,12.1 22.75,15.28 22.75,24.12 L 61.52,95 H 45.64 c -7.95,0 -11.05,5.72 -12.84,14.48 l -2.19,10.46 67.56,0.2 -2.33,-10.84 C 94,100.63 90.93,95 83.04,95 H 66.79 L 66.78,60.65 c 0,-8.93 22.91,-11.49 22.91,-24.05 z"
           fill="#424242"
           id="path12298"
           style="stroke-width:0.816639" />
      </g>
      <path
         d="m 170.86259,7.7008528 h 20.71158 c 0.85461,0 1.54782,0.6932083 1.54782,1.5478125 0,0.8546037 -0.69321,1.5478127 -1.54782,1.5478127 h -20.71158 c -0.8546,0 -1.54781,-0.693209 -1.54781,-1.5478127 0,-0.85725 0.69321,-1.5478125 1.54781,-1.5478125 z"
         fill="#795548"
         id="path12302"
         style="stroke-width:0.239099" />
      <g
         opacity="0.2"
         id="g12306"
         transform="matrix(0.26458333,0,0,0.26458333,164.28505,-22.014501)"
         style="stroke-width:0.816639">
        <path
           d="m 103.14,115.31 c 1.57,0 2.85,1.28 2.85,2.85 0,1.57 -1.28,2.85 -2.85,2.85 H 24.86 c -1.57,0 -2.85,-1.28 -2.85,-2.85 0,-1.57 1.28,-2.85 2.85,-2.85 h 78.28 m 0,-3 H 24.86 c -3.23,0 -5.85,2.62 -5.85,5.85 0,3.23 2.62,5.85 5.85,5.85 h 78.28 c 3.23,0 5.85,-2.62 5.85,-5.85 0,-3.23 -2.62,-5.85 -5.85,-5.85 z"
           fill="#424242"
           id="path12304"
           style="stroke-width:0.737981" />
      </g>
    </g>
    <circle
       style="fill:#000000;fill-opacity:1;stroke:none;stroke-width:2.117;stroke-linecap:round;stroke-dasharray:none"
       id="path14730"
       cx="206.50735"
       cy="-18.308916"
       r="1.0929701" />
    <circle
       style="fill:#000000;fill-opacity:1;stroke:none;stroke-width:2.117;stroke-linecap:round;stroke-dasharray:none"
       id="circle14738"
       cx="211.0192"
       cy="-1.4395312"
       r="1.0929701" />
    <path
       style="opacity:1;fill:none;fill-opacity:1;stroke:#000000;stroke-width:2.11668;stroke-linecap:round;stroke-dasharray:none;marker-end:url(#TriangleStart)"
       id="path19437"
       sodipodi:type="arc"
       sodipodi:cx="180.82787"
       sodipodi:cy="-3.8989651"
       sodipodi:rx="29.532948"
       sodipodi:ry="29.532948"
       sodipodi:start="0.34448081"
       sodipodi:end="5.9732672"
       sodipodi:open="true"
       sodipodi:arc-type="arc"
       d="M 208.62578,6.0745486 A 29.532948,29.532948 0 0 1 175.515,25.152169 29.532948,29.532948 0 0 1 151.29933,-4.409309 a 29.532948,29.532948 0 0 1 25.22272,-28.707031 29.532948,29.532948 0 0 1 32.43177,20.210397" />
    <circle
       style="fill:#000000;fill-opacity:1;stroke:none;stroke-width:2.117;stroke-linecap:round;stroke-dasharray:none"
       id="circle14742"
       cx="211.11142"
       cy="-5.4186721"
       r="1.0929701" />
    <circle
       style="fill:#000000;fill-opacity:1;stroke:none;stroke-width:2.117;stroke-linecap:round;stroke-dasharray:none"
       id="circle19725"
       cx="210.1235"
       cy="2.2500882"
       r="1.0929701" />
    <rect
       style="fill:#ffffff;stroke:#000000;stroke-width:0.79375;stroke-linecap:round;stroke-miterlimit:4;stroke-dasharray:none;stroke-opacity:1"
       id="rect8310"
       width="24.412153"
       height="13.185227"
       x="197.5676"
       y="-36.841312"
       ry="2.2467685" />
    <text
       xml:space="preserve"
       style="font-style:normal;font-weight:normal;font-size:10.5833px;line-height:1.25;font-family:sans-serif;fill:#0000ff;fill-opacity:1;stroke:none;stroke-width:0.264583"
       x="199.51201"
       y="-27.272512"
       id="text2010"><tspan
         sodipodi:role="line"
         id="tspan2008"
         style="font-style:normal;font-variant:normal;font-weight:bold;font-stretch:normal;font-family:sans-serif;-inkscape-font-specification:'sans-serif Bold';fill:#0000ff;stroke-width:0.264583"
         x="199.51201"
         y="-27.272512">Sys</tspan></text>
  </g>
</svg>
